<!DOCTYPE svg PUBLIC "-//W3C//DTD SVG 1.1//EN" "http://www.w3.org/Graphics/SVG/1.1/DTD/svg11.dtd">
<!-- Uploaded to: SVG Repo, www.svgrepo.com, Transformed by: SVG Repo Mixer Tools -->
<svg fill="#1E1E1E" height="100px" width="100px" version="1.1" id="Layer_1" xmlns="http://www.w3.org/2000/svg" xmlns:xlink="http://www.w3.org/1999/xlink" viewBox="0 0 512 512" xml:space="preserve">
<g id="SVGRepo_bgCarrier" stroke-width="0"/>
<g id="SVGRepo_tracerCarrier" stroke-linecap="round" stroke-linejoin="round"/>
<g id="SVGRepo_iconCarrier"> <g> <g> <g> <path d="M426.667,426.667c14.142,0,25.6-11.458,25.6-25.6s-11.458-25.6-25.6-25.6s-25.6,11.458-25.6,25.6 S412.525,426.667,426.667,426.667z M426.667,392.533c4.716,0,8.533,3.817,8.533,8.533c0,4.716-3.817,8.533-8.533,8.533 s-8.533-3.817-8.533-8.533C418.133,396.35,421.95,392.533,426.667,392.533z"/> <path d="M358.4,426.667c14.142,0,25.6-11.458,25.6-25.6s-11.458-25.6-25.6-25.6s-25.6,11.458-25.6,25.6 S344.258,426.667,358.4,426.667z M358.4,392.533c4.716,0,8.533,3.817,8.533,8.533c0,4.716-3.817,8.533-8.533,8.533 s-8.533-3.817-8.533-8.533C349.867,396.35,353.684,392.533,358.4,392.533z"/> <path d="M290.133,426.667c14.142,0,25.6-11.458,25.6-25.6s-11.458-25.6-25.6-25.6s-25.6,11.458-25.6,25.6 S275.991,426.667,290.133,426.667z M290.133,392.533c4.716,0,8.533,3.817,8.533,8.533c0,4.716-3.817,8.533-8.533,8.533 s-8.533-3.817-8.533-8.533C281.6,396.35,285.417,392.533,290.133,392.533z"/> <path d="M221.867,426.667c14.142,0,25.6-11.458,25.6-25.6s-11.458-25.6-25.6-25.6s-25.6,11.458-25.6,25.6 S207.725,426.667,221.867,426.667z M221.867,392.533c4.716,0,8.533,3.817,8.533,8.533c0,4.716-3.817,8.533-8.533,8.533 c-4.717,0-8.533-3.817-8.533-8.533C213.333,396.35,217.15,392.533,221.867,392.533z"/> <path d="M153.6,426.667c14.142,0,25.6-11.458,25.6-25.6s-11.458-25.6-25.6-25.6c-14.142,0-25.6,11.458-25.6,25.6 S139.458,426.667,153.6,426.667z M153.6,392.533c4.716,0,8.533,3.817,8.533,8.533c0,4.716-3.817,8.533-8.533,8.533 c-4.717,0-8.533-3.817-8.533-8.533C145.067,396.35,148.883,392.533,153.6,392.533z"/> <path d="M85.333,426.667c14.142,0,25.6-11.458,25.6-25.6s-11.458-25.6-25.6-25.6c-14.142,0-25.6,11.458-25.6,25.6 S71.191,426.667,85.333,426.667z M85.333,392.533c4.717,0,8.533,3.817,8.533,8.533c0,4.716-3.817,8.533-8.533,8.533 c-4.716,0-8.533-3.817-8.533-8.533C76.8,396.35,80.617,392.533,85.333,392.533z"/> <path d="M503.467,136.533H409.6v-25.6c0-4.713-3.82-8.533-8.533-8.533h-25.6V85.333H435.2c4.713,0,8.533-3.82,8.533-8.533V8.533 c0-4.713-3.82-8.533-8.533-8.533H298.667c-4.713,0-8.533,3.82-8.533,8.533V76.8c0,4.713,3.82,8.533,8.533,8.533H358.4V102.4 h-25.6c-4.713,0-8.533,3.82-8.533,8.533v25.6H187.733v-25.6c0-4.713-3.82-8.533-8.533-8.533h-25.6V85.333h59.733 c4.713,0,8.533-3.82,8.533-8.533V8.533c0-4.713-3.821-8.533-8.533-8.533H76.8c-4.713,0-8.533,3.82-8.533,8.533V76.8 c0,4.713,3.82,8.533,8.533,8.533h59.733V102.4h-25.6c-4.713,0-8.533,3.82-8.533,8.533v25.6H8.533 c-4.713,0-8.533,3.82-8.533,8.533v204.8c0,4.713,3.82,8.533,8.533,8.533h17.338c-0.161,1.026-0.268,2.069-0.268,3.14v79.053 c0,10.086,7.399,18.425,17.063,19.938v30.306c0,11.685,9.478,21.163,21.163,21.163h384.341c11.685,0,21.163-9.478,21.163-21.163 v-30.306c9.665-1.514,17.07-9.852,17.07-19.938V361.54c0-1.071-0.108-2.114-0.269-3.14h17.332c4.713,0,8.533-3.82,8.533-8.533 v-204.8C512,140.354,508.18,136.533,503.467,136.533z M307.2,17.067h119.467v51.2H307.2V17.067z M85.333,17.067H204.8v51.2 H85.333V17.067z M341.333,119.467h51.2v17.067h-51.2V119.467z M119.467,119.467h51.2v17.067h-51.2V119.467z M452.267,490.837 c0,2.259-1.837,4.096-4.096,4.096H63.829c-2.259,0-4.096-1.837-4.096-4.096V460.8h392.533V490.837z M469.337,361.54v79.053 c0,1.73-1.411,3.14-3.149,3.14H460.8H51.2h-5.39c-1.734,0-3.14-1.406-3.14-3.14V361.54c0-1.734,1.406-3.14,3.14-3.14h420.378 C467.926,358.4,469.337,359.81,469.337,361.54z M494.933,341.333h-28.745H45.81H17.067V153.6h93.867H179.2h153.6h68.267h93.867 V341.333z"/> <path d="M153.6,179.2H51.2c-4.713,0-8.533,3.82-8.533,8.533V256c0,4.713,3.82,8.533,8.533,8.533h102.4 c4.713,0,8.533-3.82,8.533-8.533v-68.267C162.133,183.021,158.313,179.2,153.6,179.2z M145.067,247.467H59.733v-51.2h85.333 V247.467z"/> <path d="M51.2,281.6c-4.713,0-8.533,3.82-8.533,8.533V307.2c0,4.713,3.82,8.533,8.533,8.533s8.533-3.82,8.533-8.533v-17.067 C59.733,285.421,55.913,281.6,51.2,281.6z"/> <path d="M153.6,281.6c-4.713,0-8.533,3.82-8.533,8.533V307.2c0,4.713,3.821,8.533,8.533,8.533c4.713,0,8.533-3.82,8.533-8.533 v-17.067C162.133,285.421,158.313,281.6,153.6,281.6z"/> <path d="M119.467,281.6c-4.713,0-8.533,3.82-8.533,8.533V307.2c0,4.713,3.82,8.533,8.533,8.533S128,311.913,128,307.2v-17.067 C128,285.421,124.18,281.6,119.467,281.6z"/> <path d="M85.333,281.6c-4.713,0-8.533,3.82-8.533,8.533V307.2c0,4.713,3.82,8.533,8.533,8.533s8.533-3.82,8.533-8.533v-17.067 C93.867,285.421,90.046,281.6,85.333,281.6z"/> <path d="M349.867,187.733V256c0,4.713,3.82,8.533,8.533,8.533h102.4c4.713,0,8.533-3.82,8.533-8.533v-68.267 c0-4.713-3.82-8.533-8.533-8.533H358.4C353.687,179.2,349.867,183.021,349.867,187.733z M366.933,196.267h85.333v51.2h-85.333 V196.267z"/> <path d="M358.4,281.6c-4.713,0-8.533,3.82-8.533,8.533V307.2c0,4.713,3.82,8.533,8.533,8.533s8.533-3.82,8.533-8.533v-17.067 C366.933,285.421,363.113,281.6,358.4,281.6z"/> <path d="M460.8,281.6c-4.713,0-8.533,3.82-8.533,8.533V307.2c0,4.713,3.821,8.533,8.533,8.533s8.533-3.82,8.533-8.533v-17.067 C469.333,285.421,465.513,281.6,460.8,281.6z"/> <path d="M426.667,281.6c-4.713,0-8.533,3.82-8.533,8.533V307.2c0,4.713,3.82,8.533,8.533,8.533s8.533-3.82,8.533-8.533v-17.067 C435.2,285.421,431.38,281.6,426.667,281.6z"/> <path d="M392.533,281.6c-4.713,0-8.533,3.82-8.533,8.533V307.2c0,4.713,3.821,8.533,8.533,8.533c4.713,0,8.533-3.82,8.533-8.533 v-17.067C401.067,285.421,397.246,281.6,392.533,281.6z"/> <path d="M230.4,179.2h-34.133c-4.713,0-8.533,3.82-8.533,8.533V230.4c0,4.713,3.82,8.533,8.533,8.533H230.4 c4.713,0,8.533-3.82,8.533-8.533v-42.667C238.933,183.021,235.113,179.2,230.4,179.2z M221.867,221.867H204.8v-25.6h17.067 V221.867z"/> <path d="M315.733,179.2H281.6c-4.713,0-8.533,3.82-8.533,8.533V230.4c0,4.713,3.82,8.533,8.533,8.533h34.133 c4.713,0,8.533-3.82,8.533-8.533v-42.667C324.267,183.021,320.446,179.2,315.733,179.2z M307.2,221.867h-17.067v-25.6H307.2 V221.867z"/> <path d="M230.4,256h-34.133c-4.713,0-8.533,3.82-8.533,8.533V307.2c0,4.713,3.82,8.533,8.533,8.533H230.4 c4.713,0,8.533-3.82,8.533-8.533v-42.667C238.933,259.82,235.113,256,230.4,256z M221.867,298.667H204.8v-25.6h17.067V298.667z"/> <path d="M315.733,256H281.6c-4.713,0-8.533,3.82-8.533,8.533V307.2c0,4.713,3.82,8.533,8.533,8.533h34.133 c4.713,0,8.533-3.82,8.533-8.533v-42.667C324.267,259.82,320.446,256,315.733,256z M307.2,298.667h-17.067v-25.6H307.2V298.667z"/> </g> </g> </g> </g>
</svg>