<!DOCTYPE svg PUBLIC "-//W3C//DTD SVG 1.1//EN" "http://www.w3.org/Graphics/SVG/1.1/DTD/svg11.dtd">
<!-- Uploaded to: SVG Repo, www.svgrepo.com, Transformed by: SVG Repo Mixer Tools -->
<svg fill="1E1E1E" height="100px" width="100px" version="1.1" id="Layer_1" xmlns="http://www.w3.org/2000/svg" xmlns:xlink="http://www.w3.org/1999/xlink" viewBox="0 0 512.003 512.003" xml:space="preserve">
<g id="SVGRepo_bgCarrier" stroke-width="0"/>
<g id="SVGRepo_tracerCarrier" stroke-linecap="round" stroke-linejoin="round"/>
<g id="SVGRepo_iconCarrier"> <g> <g> <g> <path d="M85.337,358.402c-14.142,0-25.6,11.458-25.6,25.6s11.458,25.6,25.6,25.6c14.142,0,25.6-11.458,25.6-25.6 S99.479,358.402,85.337,358.402z M85.337,392.535c-4.716,0-8.533-3.817-8.533-8.533c0-4.716,3.817-8.533,8.533-8.533 c4.717,0,8.533,3.817,8.533,8.533C93.87,388.718,90.053,392.535,85.337,392.535z"/> <path d="M153.603,358.402c-14.142,0-25.6,11.458-25.6,25.6s11.458,25.6,25.6,25.6c14.142,0,25.6-11.458,25.6-25.6 S167.746,358.402,153.603,358.402z M153.603,392.535c-4.717,0-8.533-3.817-8.533-8.533c0-4.716,3.817-8.533,8.533-8.533 c4.716,0,8.533,3.817,8.533,8.533C162.137,388.718,158.32,392.535,153.603,392.535z"/> <path d="M221.87,358.402c-14.142,0-25.6,11.458-25.6,25.6s11.458,25.6,25.6,25.6s25.6-11.458,25.6-25.6 S236.012,358.402,221.87,358.402z M221.87,392.535c-4.717,0-8.533-3.817-8.533-8.533c0-4.716,3.817-8.533,8.533-8.533 c4.716,0,8.533,3.817,8.533,8.533C230.403,388.718,226.587,392.535,221.87,392.535z"/> <path d="M290.137,358.402c-14.142,0-25.6,11.458-25.6,25.6s11.458,25.6,25.6,25.6s25.6-11.458,25.6-25.6 S304.279,358.402,290.137,358.402z M290.137,392.535c-4.716,0-8.533-3.817-8.533-8.533c0-4.716,3.817-8.533,8.533-8.533 s8.533,3.817,8.533,8.533C298.67,388.718,294.853,392.535,290.137,392.535z"/> <path d="M358.403,358.402c-14.142,0-25.6,11.458-25.6,25.6s11.458,25.6,25.6,25.6s25.6-11.458,25.6-25.6 S372.546,358.402,358.403,358.402z M358.403,392.535c-4.716,0-8.533-3.817-8.533-8.533c0-4.716,3.817-8.533,8.533-8.533 s8.533,3.817,8.533,8.533C366.937,388.718,363.12,392.535,358.403,392.535z"/> <path d="M426.67,358.402c-14.142,0-25.6,11.458-25.6,25.6s11.458,25.6,25.6,25.6s25.6-11.458,25.6-25.6 S440.812,358.402,426.67,358.402z M426.67,392.535c-4.716,0-8.533-3.817-8.533-8.533c0-4.716,3.817-8.533,8.533-8.533 s8.533,3.817,8.533,8.533C435.203,388.718,431.387,392.535,426.67,392.535z"/> <path d="M503.47,68.268c4.713,0,8.533-3.82,8.533-8.533v-51.2c0-4.713-3.82-8.533-8.533-8.533H8.537 c-4.713,0-8.533,3.82-8.533,8.533v51.2c0,4.713,3.82,8.533,8.533,8.533h25.6v205.204c-9.724,1.91-17.067,10.476-17.067,20.758 v30.306C7.405,326.052,0,334.39,0,344.475v79.053c0,11.158,9.054,20.207,20.215,20.207h5.388v51.2H8.537 c-4.713,0-8.533,3.82-8.533,8.533s3.82,8.533,8.533,8.533h25.6h51.2H426.67h51.2h25.6c4.713,0,8.533-3.82,8.533-8.533 s-3.82-8.533-8.533-8.533h-17.067v-51.2h5.39c11.162,0,20.207-9.049,20.207-20.207v-79.053c0-10.086-7.399-18.425-17.063-19.938 v-30.306c0-10.282-7.342-18.849-17.067-20.758V68.268H503.47z M17.07,51.202V17.068h477.867v34.133H477.87h-68.267H273.07 h-34.133H102.403H34.137H17.07z M256.003,238.935c-18.848,0-34.133-15.286-34.133-34.133h68.267 C290.137,223.649,274.851,238.935,256.003,238.935z M247.47,256.002h17.067v17.067H247.47V256.002z M281.603,249.133 c15.298-8.855,25.6-25.387,25.6-44.332h8.533c4.713,0,8.533-3.82,8.533-8.533s-3.82-8.533-8.533-8.533H298.67h-85.333H196.27 c-4.713,0-8.533,3.82-8.533,8.533s3.82,8.533,8.533,8.533h8.533c0,18.945,10.302,35.477,25.6,44.332v23.935h-128v-204.8h128 v23.935c-15.298,8.855-25.6,25.387-25.6,44.332h-8.533c-4.713,0-8.533,3.82-8.533,8.533s3.82,8.533,8.533,8.533h17.067h85.333 h17.067c4.713,0,8.533-3.821,8.533-8.533s-3.82-8.533-8.533-8.533h-8.533c0-18.945-10.302-35.477-25.6-44.332V68.268h128v204.8 h-128V249.133z M256.003,102.402c18.848,0,34.133,15.286,34.133,34.133H221.87C221.87,117.687,237.156,102.402,256.003,102.402z M264.537,85.335H247.47V68.268h17.067V85.335z M85.337,68.268v204.8H51.203v-204.8H85.337z M34.137,294.231 c0-2.259,1.837-4.096,4.096-4.096h64.171h136.533h34.133h136.533h64.171c2.259,0,4.096,1.837,4.096,4.096v30.037H34.137V294.231z M42.67,494.935v-51.2h34.133v51.2H42.67z M418.137,443.735v51.2H93.87v-51.2H418.137z M469.337,494.935h-34.133v-51.2h34.133 V494.935z M494.933,423.528c0,1.734-1.406,3.14-3.14,3.14H477.87h-51.2H85.337h-51.2H20.215c-1.738,0-3.149-1.41-3.149-3.14 v-79.053c0-1.73,1.411-3.14,3.149-3.14h5.388h460.8h5.39c1.734,0,3.14,1.406,3.14,3.14V423.528z M460.803,273.068H426.67v-204.8 h34.133V273.068z"/> </g> </g> </g> </g>
</svg>