<!DOCTYPE svg PUBLIC "-//W3C//DTD SVG 1.1//EN" "http://www.w3.org/Graphics/SVG/1.1/DTD/svg11.dtd">
<!-- Uploaded to: SVG Repo, www.svgrepo.com, Transformed by: SVG Repo Mixer Tools -->
<svg fill="#D9D9D9" height="101px" width="101px" version="1.1" id="Layer_1" xmlns="http://www.w3.org/2000/svg" xmlns:xlink="http://www.w3.org/1999/xlink" viewBox="0 0 512.003 512.003" xml:space="preserve" stroke="#D9D9D9">
<g id="SVGRepo_bgCarrier" stroke-width="0"/>
<g id="SVGRepo_tracerCarrier" stroke-linecap="round" stroke-linejoin="round"/>
<g id="SVGRepo_iconCarrier"> <g> <g> <g> <path d="M85.337,396.802c14.142,0,25.6-11.458,25.6-25.6s-11.458-25.6-25.6-25.6c-14.142,0-25.6,11.458-25.6,25.6 S71.195,396.802,85.337,396.802z M85.337,362.668c4.717,0,8.533,3.817,8.533,8.533s-3.817,8.533-8.533,8.533 c-4.716,0-8.533-3.817-8.533-8.533S80.62,362.668,85.337,362.668z"/> <path d="M153.603,396.802c14.142,0,25.6-11.458,25.6-25.6s-11.458-25.6-25.6-25.6c-14.142,0-25.6,11.458-25.6,25.6 S139.461,396.802,153.603,396.802z M153.603,362.668c4.716,0,8.533,3.817,8.533,8.533s-3.817,8.533-8.533,8.533 c-4.717,0-8.533-3.817-8.533-8.533S148.887,362.668,153.603,362.668z"/> <path d="M221.87,396.802c14.142,0,25.6-11.458,25.6-25.6s-11.458-25.6-25.6-25.6s-25.6,11.458-25.6,25.6 S207.728,396.802,221.87,396.802z M221.87,362.668c4.716,0,8.533,3.817,8.533,8.533s-3.817,8.533-8.533,8.533 c-4.717,0-8.533-3.817-8.533-8.533S217.154,362.668,221.87,362.668z"/> <path d="M290.137,396.802c14.142,0,25.6-11.458,25.6-25.6s-11.458-25.6-25.6-25.6s-25.6,11.458-25.6,25.6 S275.995,396.802,290.137,396.802z M290.137,362.668c4.716,0,8.533,3.817,8.533,8.533s-3.817,8.533-8.533,8.533 s-8.533-3.817-8.533-8.533S285.42,362.668,290.137,362.668z"/> <path d="M358.403,396.802c14.142,0,25.6-11.458,25.6-25.6s-11.458-25.6-25.6-25.6s-25.6,11.458-25.6,25.6 S344.261,396.802,358.403,396.802z M358.403,362.668c4.716,0,8.533,3.817,8.533,8.533s-3.817,8.533-8.533,8.533 s-8.533-3.817-8.533-8.533S353.687,362.668,358.403,362.668z"/> <path d="M426.67,396.802c14.142,0,25.6-11.458,25.6-25.6s-11.458-25.6-25.6-25.6s-25.6,11.458-25.6,25.6 S412.528,396.802,426.67,396.802z M426.67,362.668c4.716,0,8.533,3.817,8.533,8.533s-3.817,8.533-8.533,8.533 s-8.533-3.817-8.533-8.533S421.954,362.668,426.67,362.668z"/> <path d="M503.47,482.135h-17.067v-51.2h5.39c11.162,0,20.207-9.049,20.207-20.207v-79.053c0-10.086-7.399-18.424-17.063-19.938 v-30.306c0-10.282-7.342-18.849-17.067-20.758V32.65c0-10.959-8.889-19.849-19.849-19.849h-28.57 c-10.959,0-19.849,8.889-19.849,19.849v5.751h-25.6c-4.713,0-8.533,3.821-8.533,8.533v8.533h-17.067 c-11.149,0-20.625,7.123-24.138,17.067h-27.062c-4.713,0-8.533,3.82-8.533,8.533s3.82,8.533,8.533,8.533h27.062 c3.514,9.943,12.99,17.067,24.138,17.067h17.067v8.533c0,4.713,3.82,8.533,8.533,8.533h25.6v25.6h-25.6 c-4.713,0-8.533,3.82-8.533,8.533v8.533h-17.067c-11.149,0-20.625,7.123-24.138,17.067h-27.062c-4.713,0-8.533,3.82-8.533,8.533 s3.82,8.533,8.533,8.533h27.062c3.514,9.943,12.99,17.067,24.138,17.067h17.067v8.533c0,4.713,3.82,8.533,8.533,8.533h25.6v25.6 h-128v-42.667c0-4.713-3.821-8.533-8.533-8.533h-85.333c-4.713,0-8.533,3.82-8.533,8.533v42.667h-76.8v-42.667h25.6 c4.713,0,8.533-3.82,8.533-8.533v-8.533h25.6c4.713,0,8.533-3.82,8.533-8.533s-3.82-8.533-8.533-8.533h-25.6v-17.067h25.6 c4.713,0,8.533-3.821,8.533-8.533s-3.82-8.533-8.533-8.533h-25.6v-17.067h25.6c4.713,0,8.533-3.82,8.533-8.533 c0-4.713-3.82-8.533-8.533-8.533h-25.6V98.135h25.6c4.713,0,8.533-3.82,8.533-8.533s-3.82-8.533-8.533-8.533h-25.6v-8.533 c0-4.713-3.82-8.533-8.533-8.533h-25.6V32.65c0-10.959-8.889-19.849-19.849-19.849h-28.57c-10.959,0-19.849,8.889-19.849,19.849 v228.023c-9.724,1.91-17.067,10.476-17.067,20.758v30.306C7.405,313.252,0,321.59,0,331.675v79.053 c0,11.158,9.054,20.207,20.215,20.207h5.388v51.2H8.537c-4.713,0-8.533,3.82-8.533,8.533s3.82,8.533,8.533,8.533h25.6h51.2 H426.67h51.2h25.6c4.713,0,8.533-3.82,8.533-8.533S508.183,482.135,503.47,482.135z M358.403,89.602 c-4.716,0-8.533-3.817-8.533-8.533s3.817-8.533,8.533-8.533h17.067v17.067H358.403z M392.537,106.668v-8.533V64.002v-8.533 h17.067v51.2H392.537z M358.403,200.535c-4.716,0-8.533-3.817-8.533-8.533s3.817-8.533,8.533-8.533h17.067v17.067H358.403z M392.537,217.602v-8.533v-34.133v-8.533h17.067v51.2H392.537z M426.67,226.135v-68.267v-42.667V46.935V32.65 c0-1.534,1.248-2.782,2.782-2.782h28.57c1.534,0,2.782,1.248,2.782,2.782v227.618H426.67V226.135z M196.27,226.135h68.267v34.133 H196.27V226.135z M119.47,81.068v119.467h-17.067V81.068H119.47z M51.203,32.65c0-1.534,1.248-2.782,2.782-2.782h28.57 c1.534,0,2.782,1.248,2.782,2.782v39.885v136.533v51.2H51.203V32.65z M34.137,281.431c0-2.259,1.837-4.096,4.096-4.096h64.171 h85.333h85.333h136.533h64.171c2.259,0,4.096,1.837,4.096,4.096v30.037H34.137V281.431z M17.067,410.728v-79.053 c0-1.73,1.411-3.14,3.149-3.14h5.388h460.8h5.39c1.734,0,3.14,1.406,3.14,3.14v79.053c0,1.734-1.406,3.14-3.14,3.14H477.87h-51.2 H85.337h-51.2H20.215C18.477,413.868,17.067,412.458,17.067,410.728z M418.137,430.935v51.2H93.87v-51.2H418.137z M42.67,482.135 v-51.2h34.133v51.2H42.67z M435.203,482.135v-51.2h34.133v51.2H435.203z"/> </g> </g> </g> </g>
</svg>